<svg width="188" height="143" viewBox="0 0 188 143" fill="none" xmlns="http://www.w3.org/2000/svg">
<g clip-path="url(#clip0_1_3)">
<path d="M163.687 142.792L122.404 111.27H98.5449C96.3059 111.27 94.0888 110.828 92.0207 109.97C89.9526 109.112 88.074 107.855 86.4924 106.27C84.9109 104.685 83.6575 102.804 82.8039 100.734C81.9504 98.6639 81.5135 96.4459 81.5182 94.2069V75.915H68.0704L24.2928 106.932V75.915H17.0628C14.8268 75.9197 12.6118 75.484 10.5442 74.6327C8.47664 73.7815 6.59697 72.5313 5.01254 70.9536C3.42811 69.3758 2.16995 67.5015 1.3099 65.4376C0.449847 63.3736 0.00474225 61.1605 0 58.9245L0 17.0628C0 12.5375 1.79768 8.19747 4.99758 4.99758C8.19747 1.79768 12.5375 0 17.0628 0L78.9877 0C83.5131 0 87.8531 1.79768 91.053 4.99758C94.2528 8.19747 96.0505 12.5375 96.0505 17.0628V24.2928C96.0421 24.5716 95.93 24.8373 95.7361 25.0378C95.5423 25.2384 95.2806 25.3594 95.0022 25.3773C90.6307 25.7152 86.5611 27.737 83.6511 31.0167C83.5937 31.042 83.5306 31.052 83.4682 31.0456C83.4058 31.0391 83.3461 31.0166 83.2951 30.9801C83.244 30.9436 83.2033 30.8945 83.177 30.8375C83.1507 30.7806 83.1396 30.7177 83.145 30.6552V17.0628C83.1452 16.5218 83.037 15.9863 82.8267 15.4879C82.6165 14.9895 82.3086 14.5382 81.921 14.1608C81.5335 13.7834 81.0743 13.4875 80.5705 13.2905C80.0667 13.0935 79.5285 12.9995 78.9877 13.014H17.0628C15.989 13.014 14.9592 13.4406 14.1999 14.1999C13.4406 14.9592 13.014 15.989 13.014 17.0628V58.9245C13.0235 59.992 13.4543 61.0126 14.2126 61.7641C14.9708 62.5156 15.9952 62.9372 17.0628 62.9371H37.3429V81.7351L63.9132 62.9371H81.5182V47.2119C81.5182 42.6928 83.3109 38.3583 86.503 35.1594C89.6951 31.9606 94.0258 30.1587 98.5449 30.1491H111.342C115.584 30.1965 119.637 31.91 122.626 34.9197C125.616 37.9294 127.302 41.9939 127.32 46.2358V59.7198C127.33 61.8432 126.92 63.9475 126.114 65.912C125.308 67.8764 124.122 69.6623 122.624 71.1672C121.126 72.672 119.345 73.8661 117.384 74.6808C115.423 75.4956 113.321 75.915 111.197 75.915H94.5322V93.99C94.5322 95.0575 94.9538 96.0819 95.7053 96.8402C96.4568 97.5985 97.4773 98.0292 98.5449 98.0388H126.814L150.637 116.114V98.0388H170.917C171.991 98.0388 173.021 97.6122 173.78 96.8529C174.539 96.0936 174.966 95.0638 174.966 93.99V46.995C174.859 45.998 174.385 45.0764 173.637 44.4086C172.889 43.7407 171.92 43.3742 170.917 43.38H132.924C132.695 43.3644 132.479 43.2689 132.314 43.1103C132.149 42.9517 132.045 42.7401 132.02 42.5124C131.873 40.3023 131.271 38.1464 130.251 36.1804C129.23 34.2145 127.814 32.481 126.091 31.089C126.017 31.0175 125.969 30.9237 125.953 30.8221C125.938 30.7204 125.956 30.6165 126.005 30.5263C126.055 30.436 126.132 30.3644 126.226 30.3224C126.32 30.2804 126.425 30.2703 126.525 30.2937H170.917C173.156 30.2889 175.374 30.7258 177.444 31.5794C179.514 32.4329 181.395 33.6863 182.98 35.2679C184.565 36.8494 185.823 38.728 186.68 40.7962C187.538 42.8643 187.98 45.0813 187.98 47.3203V94.3153C187.98 98.8407 186.182 103.181 182.982 106.381C179.782 109.58 175.442 111.378 170.917 111.378H163.687V142.792ZM94.5322 62.9371H111.197C112.016 62.9372 112.801 62.6146 113.383 62.0394C113.965 61.4641 114.297 60.6826 114.306 59.8644V46.3804C114.306 45.5655 113.983 44.7839 113.406 44.2077C112.83 43.6314 112.048 43.3077 111.234 43.3077H98.5087C97.4508 43.3172 96.4394 43.7442 95.6947 44.4957C94.95 45.2472 94.5322 46.2624 94.5322 47.3203V62.9371Z" fill="url(#paint0_linear_1_3)"/>
</g>
<defs>
<linearGradient id="paint0_linear_1_3" x1="187.98" y1="71.3962" x2="0" y2="71.3962" gradientUnits="userSpaceOnUse">
<stop stop-color="#008FFA"/>
<stop offset="1" stop-color="#54B2FE"/>
</linearGradient>
<clipPath id="clip0_1_3">
<rect width="187.98" height="142.792" fill="white"/>
</clipPath>
</defs>
</svg>
